<svg width="459" height="172" viewBox="0 0 459 172" fill="none" xmlns="http://www.w3.org/2000/svg">
<rect y="22" width="150" height="150" rx="20" fill="url(#paint0_linear_82_42)"/>
<path fill-rule="evenodd" clip-rule="evenodd" d="M24.0834 85.7059L49.0625 111.421H60.4167L33.0032 82.5182L60.4167 53.615H49.0625L24.0834 79.9353C23.232 80.787 22.137 81.8588 21.4882 82.5C22.137 83.1412 23.4346 85.0647 24.0834 85.7059Z" fill="white"/>
<path fill-rule="evenodd" clip-rule="evenodd" d="M38.0834 85.7059L63.0625 111.421H74.4167L47.0032 82.5182L74.4167 53.615H63.0625L38.0834 79.9353C37.232 80.787 36.137 81.8588 35.4882 82.5C36.137 83.1412 37.4346 85.0647 38.0834 85.7059Z" fill="white"/>
<path fill-rule="evenodd" clip-rule="evenodd" d="M125.417 115.706L100.437 141.421H89.0833L116.497 112.518L89.0833 83.615H100.437L125.417 109.935C126.268 110.787 127.363 111.859 128.012 112.5C127.363 113.141 126.065 115.065 125.417 115.706Z" fill="white"/>
<path fill-rule="evenodd" clip-rule="evenodd" d="M111.417 115.706L86.4375 141.421H75.0833L102.497 112.518L75.0833 83.615H86.4375L111.417 109.935C112.268 110.787 113.363 111.859 114.012 112.5C113.363 113.141 112.065 115.065 111.417 115.706Z" fill="white"/>
<path d="M224.852 105H209.803L205.157 89.345C204.214 86.113 203.272 83.6217 202.329 81.871C201.386 80.053 200.107 78.6727 198.491 77.73C196.875 76.7873 194.72 76.316 192.027 76.316H181.826V105H167.585V34.3H196.168C204.787 34.3 211.15 36.017 215.257 39.451C219.364 42.8177 221.418 48.1033 221.418 55.308C221.418 59.954 220.172 63.691 217.681 66.519C215.257 69.347 211.89 71.165 207.581 71.973C211.015 73.1177 213.607 75.104 215.358 77.932C217.109 80.76 218.725 84.598 220.206 89.446L224.852 105ZM196.572 65.206C199.669 65.206 202.194 64.398 204.147 62.782C206.167 61.0987 207.177 58.6073 207.177 55.308C207.177 52.0087 206.167 49.551 204.147 47.935C202.194 46.2517 199.669 45.41 196.572 45.41H181.826V65.206H196.572ZM273.925 90.355C273.925 92.173 274.262 93.6543 274.935 94.799C275.676 95.9437 276.955 97.1893 278.773 98.536L269.986 106.212C266.148 104.259 263.522 101.802 262.108 98.839C260.627 100.926 258.607 102.677 256.048 104.091C253.49 105.505 250.325 106.212 246.554 106.212C241.774 106.212 237.969 105 235.141 102.576C232.313 100.085 230.899 96.5833 230.899 92.072C230.899 88.032 231.943 84.9347 234.03 82.78C236.185 80.558 238.643 79.043 241.403 78.235C244.164 77.427 247.228 76.8547 250.594 76.518L255.442 76.013C257.395 75.811 258.742 75.4743 259.482 75.003C260.29 74.5317 260.728 73.7573 260.795 72.68C260.661 70.66 259.987 68.943 258.775 67.529C257.631 66.115 255.409 65.408 252.109 65.408C249.955 65.408 248.069 65.812 246.453 66.62C244.837 67.428 243.188 68.741 241.504 70.559L232.515 64.297C234.468 61.7383 236.926 59.7857 239.888 58.439C242.851 57.025 246.925 56.318 252.109 56.318C266.653 56.318 273.925 62.2097 273.925 73.993V90.355ZM249.887 96.819C253.389 96.819 256.082 95.9773 257.967 94.294C259.853 92.5433 260.795 90.4223 260.795 87.931V83.689C259.718 84.093 257.664 84.4633 254.634 84.8L251.604 85.103C249.315 85.305 247.396 85.8437 245.847 86.719C244.299 87.527 243.524 89.0757 243.524 91.365C243.524 93.1157 244.097 94.4623 245.241 95.405C246.386 96.3477 247.935 96.819 249.887 96.819ZM314.677 106.212C308.348 106.212 303.466 104.259 300.032 100.354V105H286.902V45.107C286.902 43.289 286.532 41.8077 285.791 40.663C285.118 39.5183 283.872 38.2727 282.054 36.926L290.841 29.25C294.275 31.0007 296.666 33.0207 298.012 35.31C299.359 37.532 300.032 40.663 300.032 44.703V62.479C303.534 58.3717 308.415 56.318 314.677 56.318C319.121 56.318 322.892 57.3953 325.989 59.55C329.154 61.6373 331.511 64.4653 333.059 68.034C334.608 71.5353 335.382 75.407 335.382 79.649V82.881C335.382 87.123 334.608 91.0283 333.059 94.597C331.511 98.0983 329.154 100.926 325.989 103.081C322.892 105.168 319.121 106.212 314.677 106.212ZM310.839 96.112C314.543 96.112 317.371 94.8327 319.323 92.274C321.276 89.7153 322.252 86.5843 322.252 82.881V79.649C322.252 75.9457 321.276 72.8147 319.323 70.256C317.371 67.6973 314.543 66.418 310.839 66.418C305.183 66.418 301.581 69.1787 300.032 74.7V87.83C301.581 93.3513 305.183 96.112 310.839 96.112ZM352.743 51.167C350.656 51.167 348.872 50.4263 347.39 48.945C345.909 47.4637 345.168 45.6793 345.168 43.592C345.168 41.572 345.909 39.8213 347.39 38.34C348.872 36.7913 350.656 36.017 352.743 36.017C354.763 36.017 356.514 36.7913 357.995 38.34C359.544 39.8213 360.318 41.572 360.318 43.592C360.318 45.6793 359.544 47.4637 357.995 48.945C356.514 50.4263 354.763 51.167 352.743 51.167ZM355.369 106.212C351.935 104.461 349.545 102.475 348.198 100.253C346.852 97.9637 346.178 94.799 346.178 90.759V57.53H359.308V90.355C359.308 92.173 359.645 93.6543 360.318 94.799C361.059 95.9437 362.338 97.1893 364.156 98.536L355.369 106.212ZM416.009 90.153C416.009 91.971 416.345 93.4523 417.019 94.597C417.759 95.7417 419.039 96.9873 420.857 98.334L412.07 106.01C409.848 104.865 408.097 103.653 406.818 102.374C405.538 101.095 404.562 99.5797 403.889 97.829C400.791 103.418 395.977 106.212 389.446 106.212C384.126 106.212 380.019 104.798 377.124 101.97C374.228 99.142 372.781 95.102 372.781 89.85V57.53H385.911V88.638C385.911 90.9273 386.55 92.7453 387.83 94.092C389.176 95.4387 390.994 96.112 393.284 96.112C397.728 96.112 400.926 93.2167 402.879 87.426V57.53H416.009V90.153ZM439.9 106.212C436.466 104.461 434.076 102.475 432.729 100.253C431.382 97.9637 430.709 94.799 430.709 90.759V45.107C430.709 43.289 430.339 41.8077 429.598 40.663C428.925 39.5183 427.679 38.2727 425.861 36.926L434.648 29.25C438.082 31.0007 440.472 33.0207 441.819 35.31C443.166 37.532 443.839 40.663 443.839 44.703V90.355C443.839 92.173 444.176 93.6543 444.849 94.799C445.59 95.9437 446.869 97.1893 448.687 98.536L439.9 106.212Z" fill="#3E23C5"/>
<path d="M169.6 120H172.25C174.117 120 175.55 120.4 176.55 121.2C177.583 122 178.65 123.483 179.75 125.65L185.65 137L191.55 125.65C192.65 123.483 193.7 122 194.7 121.2C195.733 120.4 197.183 120 199.05 120H201.7V155H197.3V124.85C196.867 124.883 196.483 125.067 196.15 125.4C195.85 125.7 195.483 126.233 195.05 127L185.65 144.65L176.25 127C175.85 126.233 175.483 125.7 175.15 125.4C174.817 125.067 174.433 124.883 174 124.85V155H169.6V120ZM231.559 149.75C231.559 150.45 231.692 151.033 231.959 151.5C232.225 151.933 232.709 152.417 233.409 152.95L230.459 155.55C228.759 154.683 227.725 153.45 227.359 151.85C226.559 152.983 225.442 153.883 224.009 154.55C222.609 155.217 220.992 155.55 219.159 155.55C216.659 155.55 214.725 154.967 213.359 153.8C211.992 152.6 211.309 150.883 211.309 148.65C211.309 146.35 212.109 144.633 213.709 143.5C215.309 142.367 217.509 141.65 220.309 141.35L223.709 140.95C225.142 140.783 226.075 140.533 226.509 140.2C226.975 139.833 227.192 139.217 227.159 138.35C227.025 137.05 226.492 136.017 225.559 135.25C224.659 134.483 223.275 134.1 221.409 134.1C220.042 134.1 218.875 134.333 217.909 134.8C216.942 135.233 216.059 135.95 215.259 136.95L212.259 134.8C213.092 133.533 214.242 132.583 215.709 131.95C217.209 131.283 219.109 130.95 221.409 130.95C224.775 130.95 227.309 131.65 229.009 133.05C230.709 134.45 231.559 136.483 231.559 139.15V149.75ZM220.209 152.3C222.309 152.3 223.992 151.75 225.259 150.65C226.559 149.55 227.209 148.15 227.209 146.45V143.1C226.442 143.533 225.259 143.817 223.659 143.95L220.709 144.25C217.242 144.65 215.509 146.067 215.509 148.5C215.509 149.733 215.909 150.683 216.709 151.35C217.509 151.983 218.675 152.3 220.209 152.3ZM253.535 130.95C255.968 130.95 257.852 131.65 259.185 133.05C260.552 134.45 261.235 136.417 261.235 138.95V155H256.835V139.5C256.835 137.9 256.435 136.65 255.635 135.75C254.835 134.85 253.735 134.4 252.335 134.4C250.768 134.4 249.418 134.95 248.285 136.05C247.152 137.15 246.318 138.633 245.785 140.5V155H241.385V136.75C241.385 136.05 241.252 135.483 240.985 135.05C240.718 134.583 240.235 134.083 239.535 133.55L242.435 130.95C243.502 131.55 244.285 132.183 244.785 132.85C245.285 133.517 245.602 134.383 245.735 135.45C246.502 134.05 247.552 132.95 248.885 132.15C250.218 131.35 251.768 130.95 253.535 130.95ZM291.538 149.75C291.538 150.45 291.672 151.033 291.938 151.5C292.205 151.933 292.688 152.417 293.388 152.95L290.438 155.55C288.872 154.717 287.855 153.383 287.388 151.55C285.722 154.217 283.105 155.55 279.538 155.55C277.472 155.55 275.655 155.083 274.088 154.15C272.555 153.183 271.355 151.833 270.488 150.1C269.655 148.367 269.238 146.35 269.238 144.05V142.45C269.238 140.217 269.638 138.233 270.438 136.5C271.272 134.767 272.455 133.417 273.988 132.45C275.555 131.45 277.405 130.95 279.538 130.95C282.938 130.95 285.472 132.117 287.138 134.45V124.2C287.138 123.5 287.005 122.933 286.738 122.5C286.505 122.067 286.022 121.55 285.288 120.95L288.288 118.35C289.522 119.017 290.372 119.783 290.838 120.65C291.305 121.483 291.538 122.667 291.538 124.2V149.75ZM287.138 139.35C286.605 137.683 285.788 136.45 284.688 135.65C283.622 134.817 282.238 134.4 280.538 134.4C278.438 134.4 276.755 135.15 275.488 136.65C274.255 138.15 273.638 140.083 273.638 142.45V144.05C273.638 146.417 274.255 148.35 275.488 149.85C276.722 151.35 278.405 152.1 280.538 152.1C282.238 152.1 283.622 151.7 284.688 150.9C285.788 150.067 286.605 148.817 287.138 147.15V139.35ZM320.406 149.75C320.406 150.45 320.54 151.033 320.806 151.5C321.073 151.933 321.556 152.417 322.256 152.95L319.306 155.55C317.606 154.683 316.573 153.45 316.206 151.85C315.406 152.983 314.29 153.883 312.856 154.55C311.456 155.217 309.84 155.55 308.006 155.55C305.506 155.55 303.573 154.967 302.206 153.8C300.84 152.6 300.156 150.883 300.156 148.65C300.156 146.35 300.956 144.633 302.556 143.5C304.156 142.367 306.356 141.65 309.156 141.35L312.556 140.95C313.99 140.783 314.923 140.533 315.356 140.2C315.823 139.833 316.04 139.217 316.006 138.35C315.873 137.05 315.34 136.017 314.406 135.25C313.506 134.483 312.123 134.1 310.256 134.1C308.89 134.1 307.723 134.333 306.756 134.8C305.79 135.233 304.906 135.95 304.106 136.95L301.106 134.8C301.94 133.533 303.09 132.583 304.556 131.95C306.056 131.283 307.956 130.95 310.256 130.95C313.623 130.95 316.156 131.65 317.856 133.05C319.556 134.45 320.406 136.483 320.406 139.15V149.75ZM309.056 152.3C311.156 152.3 312.84 151.75 314.106 150.65C315.406 149.55 316.056 148.15 316.056 146.45V143.1C315.29 143.533 314.106 143.817 312.506 143.95L309.556 144.25C306.09 144.65 304.356 146.067 304.356 148.5C304.356 149.733 304.756 150.683 305.556 151.35C306.356 151.983 307.523 152.3 309.056 152.3ZM333.045 155.55C331.811 154.883 330.945 154.133 330.445 153.3C329.978 152.433 329.745 151.25 329.745 149.75V124.15C329.745 123.45 329.611 122.883 329.345 122.45C329.078 121.983 328.595 121.483 327.895 120.95L330.795 118.35C332.061 119.017 332.928 119.783 333.395 120.65C333.895 121.483 334.145 122.65 334.145 124.15V149.75C334.145 150.45 334.261 151.033 334.495 151.5C334.761 151.933 335.245 152.417 335.945 152.95L333.045 155.55Z" fill="#3E23C5"/>
<path d="M333.5 153.5C335.5 155.5 340.4 159.3 344 158.5V137.5H456.5V22.5H353V41" stroke="#3E23C5" stroke-width="4"/>
<defs>
<linearGradient id="paint0_linear_82_42" x1="75" y1="22" x2="75" y2="172" gradientUnits="userSpaceOnUse">
<stop stop-color="#1805AE"/>
<stop offset="1" stop-color="#6542DC"/>
</linearGradient>
</defs>
</svg>
